<?xml version="1.0" ?><svg id="Layer_1" style="enable-background:new 0 0 156.15 192.972;" version="1.1" viewBox="0 0 156.15 192.972" xml:space="preserve" xmlns="http://www.w3.org/2000/svg" xmlns:xlink="http://www.w3.org/1999/xlink"><g><path d="M43.243,51.527l-25.52-16.748c-2.308-1.515-5.409-0.872-6.925,1.437c-1.513,2.31-0.872,5.41,1.438,6.925l25.06,16.447   C38.938,56.466,40.951,53.761,43.243,51.527z"/><ellipse cx="74.265" cy="22.498" rx="22.493" ry="22.495" transform="matrix(0.2268 -0.9739 0.9739 0.2268 35.5103 89.7255)"/><path d="M50.057,69.897c-2.465-4.935-0.458-10.953,4.471-13.415c1.405-0.703,2.906-1.061,4.469-1.061   c3.816,0,7.244,2.121,8.949,5.534l5.347,10.692c3.672-9.328,1.478-20.953-6.422-24.12c-8.166-3.275-21.059-0.374-28.048,13.442   c-9.498,19.055-12.742,31.862-13.218,54.222c0.307,5.588,1.756,9.634,3.893,12.587l30.578-37.847L50.057,69.897z"/><path d="M63.71,101.344l-26.213,32.446c2.854,1.131,5.912,1.7,8.808,2.062c2.396,0.3,4.448,0.489,6.195,0.354   c0.89-0.027,1.789-0.144,2.688-0.37l35.986-9.089l20.148,43.586c2.111,4.568,6.633,7.259,11.356,7.259   c1.756,0,3.537-0.371,5.234-1.156c6.268-2.896,9-10.324,6.103-16.59l-24.5-53.001c-2.52-5.446-8.59-8.345-14.406-6.877   l-32.93,8.316C62.617,105.963,63.137,103.644,63.71,101.344z"/><path d="M105.6,61.399l3.849-8.692c1.258-2.841-0.025-6.163-2.867-7.421c-2.84-1.258-6.162,0.026-7.42,2.867l-5.123,11.572   c1.414-0.741,2.995-1.135,4.631-1.135C101.286,58.591,103.731,59.591,105.6,61.399z"/><path d="M92.243,91.569l2.205-4.981l-8.486,8.212C88.502,95.326,91.153,94.036,92.243,91.569z"/><path d="M103.31,78.014l49.297,21.823l3.543-8l-47.707-21.121c-0.412,1.916-1.379,3.667-2.82,5.061L103.31,78.014z"/><path d="M143.835,163.748l-13.703,22.097c-1.357,2.191-0.684,5.067,1.506,6.426c2.191,1.358,5.068,0.684,6.426-1.507l13.703-22.097   c1.357-2.19,0.684-5.066-1.508-6.425C148.07,160.883,145.193,161.558,143.835,163.748z"/><path d="M19.834,154.84h59.832c3.865,0,7.001-3.134,7.001-6.999c0-3.867-3.136-6.999-7.001-6.999l-47.936-0.002l3.628-4.404   c0.004-0.004,0.006-0.01,0.009-0.014c1.745-2.131,1.438-5.271-0.688-7.024c-2.13-1.755-5.279-1.451-7.037,0.676   c0,0.001-0.001,0.001-0.002,0.002l-2.849,3.458L13.925,60.149c-0.566-3.824-4.127-6.466-7.95-5.898   c-3.824,0.566-6.464,4.125-5.898,7.948l12.832,86.667C13.415,152.293,16.368,154.84,19.834,154.84z"/><path d="M66.156,61.847c-1.975-3.954-6.781-5.556-10.732-3.578c-3.951,1.976-5.553,6.779-3.577,10.732l14,28.001   c1.134,2.271,3.306,3.88,5.809,4.307c0.444,0.076,0.891,0.113,1.336,0.113c2.059,0,4.071-0.797,5.572-2.249l25.668-24.834   c3.176-3.071,3.258-8.137,0.188-11.313c-3.074-3.175-8.137-3.258-11.313-0.184L75.28,80.089L66.156,61.847z"/></g></svg>