<?xml version="1.0" ?><svg id="Layer_1" style="enable-background:new 0 0 143.974 229.792;" version="1.1" viewBox="0 0 143.974 229.792" xml:space="preserve" xmlns="http://www.w3.org/2000/svg" xmlns:xlink="http://www.w3.org/1999/xlink"><g><path d="M95.122,111.614c-1.255-1.764-2.788-3.311-4.535-4.588l-29.201,25.825c1.037,1.853,2.367,3.513,3.915,4.945   c4.574-0.566,9.463-0.898,14.7-0.898c4.457,0,8.664,0.238,12.641,0.656c3.698-3.546,6.041-8.484,6.175-13.962   c-3.322-2.252-5.106-6.388-4.152-10.528C94.78,112.563,94.937,112.08,95.122,111.614z"/><path d="M61.53,119.374L79.818,103.2c-0.327-0.017-0.65-0.051-0.98-0.052c-7.075,0.014-13.294,3.738-16.851,9.313   c0.059,0.199,0.119,0.397,0.167,0.603C62.66,115.263,62.386,117.457,61.53,119.374z"/><path d="M99.73,98.939c2.174,1.879,4.097,4.039,5.701,6.433c0.008,0.001,0.016,0,0.023,0.001v-3.128   c1.214,1.172,2.462,2.498,3.711,3.905l9.246,2.133l-0.051,2.041l-12.152-2.805c-4.307-0.994-8.602,1.691-9.598,5.996   c-0.992,4.305,1.693,8.6,5.998,9.596l15.348,3.541l10.488,2.419c0.003,0.001,0.007,0.002,0.01,0.003l0.154,0.035   c0.142,0.033,0.282,0.048,0.424,0.073c0.148,0.025,0.296,0.059,0.445,0.076c0.257,0.03,0.512,0.042,0.766,0.048   c0.058,0.001,0.114,0.011,0.172,0.011c0.013,0,0.025-0.003,0.038-0.003c0.309-0.001,0.613-0.025,0.915-0.063   c0.081-0.01,0.161-0.018,0.241-0.031c0.303-0.046,0.601-0.107,0.894-0.187c0.078-0.021,0.154-0.047,0.231-0.07   c0.28-0.086,0.557-0.184,0.824-0.299c0.047-0.02,0.094-0.038,0.14-0.059c0.295-0.134,0.578-0.289,0.854-0.456   c0.038-0.023,0.078-0.038,0.115-0.062c0.028-0.018,0.053-0.039,0.08-0.057c0.155-0.1,0.304-0.207,0.451-0.316   c0.056-0.042,0.114-0.081,0.169-0.123c0.182-0.145,0.357-0.297,0.527-0.457c0.067-0.063,0.13-0.131,0.195-0.197   c0.109-0.11,0.217-0.222,0.32-0.339c0.063-0.07,0.122-0.144,0.182-0.217c0.101-0.121,0.196-0.245,0.289-0.373   c0.051-0.069,0.101-0.139,0.147-0.21c0.098-0.143,0.189-0.291,0.277-0.44c0.034-0.06,0.07-0.117,0.104-0.178   c0.099-0.179,0.189-0.362,0.274-0.55c0.017-0.035,0.034-0.068,0.05-0.104c0.196-0.448,0.356-0.918,0.471-1.412   c0.115-0.499,0.176-0.997,0.195-1.49c0-0.02,0.003-0.039,0.004-0.059c0.007-0.208,0-0.414-0.01-0.62   c-0.002-0.055,0-0.109-0.004-0.164c-0.013-0.188-0.037-0.373-0.063-0.558c-0.011-0.074-0.016-0.149-0.028-0.225   c-0.028-0.172-0.069-0.34-0.108-0.509c-0.021-0.087-0.036-0.174-0.059-0.26c-0.047-0.17-0.104-0.336-0.161-0.502   c-0.028-0.081-0.05-0.164-0.081-0.244c-0.08-0.213-0.173-0.421-0.271-0.626c-0.015-0.031-0.026-0.063-0.042-0.094   c-0.12-0.243-0.253-0.479-0.397-0.709v-0.001c-0.1-0.147-5.197-8.269-11.924-16.647c-3.384-4.198-7.144-8.459-11.168-11.961   c-0.424-0.366-0.854-0.72-1.285-1.069L99.73,98.939z"/><path d="M109.606,83.53c0.988,1.117,2.365,1.688,3.749,1.688c1.174,0,2.354-0.413,3.302-1.25c0.003-0.002,0.005-0.003,0.007-0.005   l18.547-16.403c2.07-1.829,2.263-4.988,0.434-7.057c-1.829-2.069-4.988-2.264-7.058-0.435l-18.541,16.398l-0.006,0.005   C107.972,78.3,107.777,81.461,109.606,83.53z"/><path d="M109.44,140.662l-1.651,6.063l0,0l-0.977,3.585c-2.618-0.713-5.429-1.341-8.417-1.863   c-5.412,4.194-12.196,6.699-19.558,6.7c-7.158-0.001-13.773-2.364-19.109-6.35c-2.29,0.448-4.476,0.954-6.538,1.516l-2.293-8.417   c0.39-0.576,0.644-1.214,0.767-1.879c-1.059-1.699-1.961-3.506-2.69-5.397c-1.766-0.866-3.953-0.645-5.517,0.74l-0.005,0.005   l-20.774,18.371c-4.288,3.146-6.461,5.532-6.649,5.744l0.077,0.068l-2.853,2.523c-2.068,1.828-2.262,4.988-0.434,7.057   c0.989,1.118,2.366,1.689,3.748,1.689c1.178,0,2.36-0.414,3.311-1.255l9.056-8.009c1.969-1.423,4.476-3.046,7.548-4.684   c-1.62,2.331-3.073,4.921-4.295,7.77c-4.23,9.711-6.485,22.271-6.505,39.368c0,4.384,0.154,9.067,0.476,14.086   c0.426,6.618,5.927,11.699,12.466,11.699c0.269,0,0.539-0.008,0.811-0.025c6.888-0.443,12.115-6.388,11.672-13.278   c-0.292-4.533-0.426-8.687-0.426-12.481c-0.052-19.849,3.813-29.612,6.625-33.294c1.419-1.903,2.471-2.558,3.415-3.012   c0.941-0.429,1.937-0.605,3.03-0.607c1.015-0.005,2.052,0.18,2.717,0.357c0.333,0.087,0.569,0.169,0.663,0.202   c0.016,0.005,0.028,0.01,0.036,0.013c3.423,1.426,7.129,1.204,10.24-0.298c3.131,1.514,6.867,1.729,10.312,0.271   c0.353-0.131,1.877-0.564,3.347-0.546c1.091,0.004,2.087,0.181,3.027,0.608c1.339,0.693,3.259,1.775,5.639,6.981   c2.297,5.164,4.418,14.483,4.398,29.32c0,3.799-0.132,7.957-0.421,12.497c-0.438,6.89,4.794,12.828,11.685,13.267   c0.269,0.018,0.537,0.025,0.803,0.025c6.543,0,12.044-5.089,12.464-11.71c0.317-5.014,0.47-9.695,0.472-14.079   c-0.053-22.729-3.974-37.671-11.445-48.05c-0.722-0.994-1.489-1.919-2.279-2.806c6.073,2.376,10.786,5.065,14.206,7.384   c2.447,1.657,4.232,3.124,5.374,4.146c0.574,0.512,0.986,0.91,1.243,1.17c0.127,0.127,0.216,0.22,0.266,0.271   c0.024,0.025,0.038,0.043,0.045,0.047l1.07-0.983l6.364-5.704h-0.002C143.535,158.991,132.585,146.97,109.44,140.662z"/><path d="M78.84,101.148c7.049,0.013,13.313,3.332,17.337,8.486c1.568-2.285,4.034-3.837,6.855-4.221   c-5.459-7.435-14.259-12.265-24.192-12.266c-9.994,0.001-18.837,4.89-24.289,12.4c2.742,0.593,5.082,2.305,6.482,4.706   C65.03,104.747,71.51,101.161,78.84,101.148z"/><path d="M78.84,153.148c15.418-0.004,28.108-11.631,29.802-26.593l-6.485-1.497c-0.477-0.11-0.931-0.264-1.374-0.437   c-0.778,11.459-10.29,20.506-21.942,20.526c-11.779-0.02-21.375-9.261-21.972-20.894c-0.689,0.345-1.424,0.623-2.208,0.805   l-5.646,1.303C50.619,141.418,63.354,153.145,78.84,153.148z"/><path d="M54.208,123.111c4.304-0.996,6.989-5.291,5.997-9.596c-0.995-4.305-5.29-6.99-9.597-5.996l-12.153,2.805l-0.051-2.041   l9.236-2.13c1.257-1.414,2.514-2.739,3.722-3.912v3.132c0.305-0.032,0.612-0.049,0.917-0.053   c5.752-8.542,15.511-14.172,26.558-14.172c4.231,0,8.271,0.833,11.971,2.332L103.6,82.168c-1.312-0.383-2.73-0.631-4.3-0.645   c-0.21,0-0.415,0.016-0.621,0.031c-0.313-0.038-0.629-0.064-0.952-0.064h-4.802c-4.065,3-9.085,4.777-14.515,4.777   c-5.43,0-10.45-1.777-14.516-4.777h-4.803c-0.327,0-0.646,0.026-0.962,0.066c-0.203-0.016-0.405-0.031-0.612-0.031v-0.002   c-3.324,0.029-5.988,1.082-8.327,2.328c-4.074,2.232-7.511,5.356-10.871,8.812c-9.734,10.158-18.236,23.724-18.66,24.362   c-0.153,0.239-0.294,0.486-0.42,0.742c-0.009,0.019-0.016,0.037-0.025,0.057c-0.104,0.215-0.201,0.434-0.286,0.658   c-0.036,0.095-0.063,0.191-0.095,0.287c-0.05,0.15-0.103,0.3-0.145,0.454c-0.03,0.111-0.051,0.225-0.076,0.337   c-0.032,0.142-0.067,0.283-0.092,0.428c-0.018,0.111-0.028,0.223-0.042,0.335c-0.018,0.147-0.04,0.294-0.05,0.442   c-0.008,0.111-0.005,0.222-0.008,0.332c-0.004,0.15-0.012,0.299-0.007,0.45c0.004,0.125,0.019,0.248,0.028,0.372   c0.011,0.137,0.016,0.272,0.033,0.41c0.033,0.258,0.079,0.514,0.136,0.767c0.001,0.007,0.002,0.013,0.003,0.019   c0.056,0.24,0.123,0.475,0.198,0.705c0.011,0.033,0.026,0.066,0.038,0.1c0.068,0.199,0.143,0.396,0.225,0.586   c0.03,0.068,0.065,0.135,0.096,0.201c0.072,0.153,0.145,0.306,0.226,0.452c0.045,0.082,0.094,0.161,0.141,0.241   c0.076,0.127,0.153,0.253,0.235,0.375c0.059,0.088,0.12,0.174,0.182,0.259c0.081,0.109,0.164,0.217,0.249,0.321   c0.071,0.088,0.142,0.175,0.217,0.26c0.088,0.099,0.18,0.193,0.272,0.287c0.08,0.081,0.156,0.164,0.24,0.242   c0.13,0.122,0.267,0.237,0.405,0.35c0.107,0.088,0.218,0.173,0.331,0.256c0.129,0.095,0.259,0.189,0.394,0.276   c0.03,0.02,0.057,0.042,0.087,0.062c0.04,0.025,0.083,0.041,0.124,0.065c0.272,0.165,0.552,0.318,0.842,0.45   c0.047,0.02,0.095,0.04,0.143,0.061c0.269,0.115,0.544,0.213,0.825,0.299c0.078,0.023,0.154,0.049,0.231,0.07   c0.292,0.08,0.591,0.142,0.894,0.187c0.08,0.013,0.16,0.022,0.241,0.031c0.302,0.036,0.606,0.062,0.914,0.063   c0.013,0,0.026,0.003,0.039,0.003c0.054,0,0.107-0.009,0.161-0.01c0.259-0.005,0.518-0.018,0.779-0.049   c0.144-0.017,0.285-0.049,0.428-0.073c0.147-0.025,0.294-0.042,0.441-0.076l0.159-0.037h0l10.492-2.42L54.208,123.111z"/><circle cx="78.408" cy="61.767" r="22.5"/><path d="M24.694,77.227c11.397,0,21.628-7.937,24.103-19.525c0.369-1.735,0.546-3.465,0.546-5.169   c0-11.395-7.936-21.628-19.525-24.101c-1.734-0.374-3.465-0.551-5.169-0.551c-11.397,0-21.628,7.941-24.101,19.529   C0.177,49.14,0,50.873,0,52.579C0,63.975,7.938,74.205,19.527,76.68C21.259,77.047,22.988,77.227,24.694,77.227z M2,52.579   c0-1.567,0.163-3.157,0.504-4.75c2.269-10.65,11.679-17.945,22.145-17.945c1.565,0,3.156,0.16,4.75,0.504   c10.65,2.27,17.943,11.681,17.943,22.145c0,1.562-0.162,3.153-0.501,4.753c-2.27,10.648-11.684,17.941-22.148,17.941   c-1.564,0-3.156-0.164-4.75-0.501C9.294,72.455,2,63.045,2,52.579z"/><rect height="4.141" width="2.367" x="23.49" y="32.145"/><rect height="4.141" transform="matrix(0.866 -0.5 0.5 0.866 -16.259 12.6638)" width="2.367" x="14.318" y="34.601"/><rect height="4.142" transform="matrix(0.5002 -0.8659 0.8659 0.5002 -33.1758 29.2921)" width="2.367" x="7.604" y="41.315"/><rect height="4.142" transform="matrix(0.5003 -0.8659 0.8659 0.5003 -33.181 65.9671)" width="2.367" x="39.375" y="59.658"/><rect height="2.367" width="4.141" x="4.26" y="51.374"/><rect height="2.366" width="4.141" x="40.945" y="51.375"/><rect height="2.367" transform="matrix(0.8661 -0.4999 0.4999 0.8661 -29.6822 12.6599)" width="4.142" x="6.717" y="60.546"/><rect height="2.365" transform="matrix(0.8663 -0.4996 0.4996 0.8663 -16.2512 26.0639)" width="4.142" x="38.487" y="42.204"/><rect height="2.366" transform="matrix(0.5002 -0.8659 0.8659 0.5002 -14.8402 47.6328)" width="4.141" x="31.773" y="35.489"/><path d="M24.056,55.451c1.598,0.342,13.782-0.086,13.782-0.086s-10.95-5.361-12.548-5.701c-1.599-0.34-3.17,0.678-3.511,2.275   C21.44,53.539,22.458,55.109,24.056,55.451z"/><rect height="2.834" width="13.834" x="17.756" y="66.725"/><polygon points="89.363,36.392 92.269,37.139 102.428,3.613 96.617,2.119  "/><polygon points="100.996,42.631 103.039,44.828 129.697,22.1 125.613,17.705  "/><polygon points="141.326,50.594 140.074,44.726 106.158,53.504 106.785,56.439  "/><polygon points="73.272,0 67.418,1.311 76.529,35.137 79.457,34.482  "/><polygon points="65.16,38.045 45.269,9.209 40.482,12.822 62.765,39.854  "/></g></svg>