<?xml version="1.0" ?><svg id="Layer_1" style="enable-background:new 0 0 146.081 196.333;" version="1.1" viewBox="0 0 146.081 196.333" xml:space="preserve" xmlns="http://www.w3.org/2000/svg" xmlns:xlink="http://www.w3.org/1999/xlink"><g><path d="M5.096,111.285c0.954,0.373,1.938,0.549,2.904,0.549c3.201,0,6.223-1.935,7.457-5.096   c7.778-19.881,18.037-30.417,26.116-36.217c1.564-1.117,3.048-2.05,4.422-2.834v20.786l45.73-40.441H53.724   c-0.31,0-0.613,0.023-0.914,0.059c-0.276,0.021-0.555,0.056-0.833,0.107c-0.856,0.158-9.221,1.823-19.704,9.304   C21.79,64.959,9.345,78.306,0.549,100.925C-1.057,105.042,0.98,109.681,5.096,111.285z"/><path d="M46.403,101.464c7.654-1.849,16.522-3.05,26.638-3.049c10.297-0.002,19.297,1.247,27.046,3.153V67.692   c1.821,1.038,3.832,2.335,5.964,3.972c7.805,6.016,17.285,16.433,24.574,35.075c1.232,3.161,4.256,5.095,7.456,5.096   c0.967,0,1.949-0.176,2.904-0.549c4.116-1.605,6.152-6.243,4.547-10.36c-8.795-22.619-21.241-35.965-31.725-43.423   c-3.955-2.823-7.607-4.816-10.669-6.214L46.403,101.464z"/><circle cx="73.042" cy="22.5" r="22.5"/><path d="M102.647,45.047c0.989,1.117,2.365,1.688,3.747,1.688c1.177,0,2.359-0.414,3.312-1.256l0.003-0.002l18.542-16.399   c2.069-1.831,2.263-4.991,0.434-7.058c-1.829-2.069-4.989-2.263-7.058-0.434l-18.545,16.403c-0.002,0.001-0.003,0.003-0.004,0.005   C101.012,39.826,100.82,42.98,102.647,45.047z"/><path d="M102.481,102.18l-1.942,7.124l-0.453,1.663v-0.002l-0.235,0.862c-7.427-2.023-16.326-3.412-26.811-3.412   c-10.487,0-19.383,1.389-26.812,3.412l-0.234-0.861v0.001l-0.481-1.767l-1.576-5.788c1.25-1.845,1.163-4.361-0.381-6.106   c-1.831-2.068-4.99-2.263-7.059-0.432l-0.01,0.009l-20.766,18.365c-4.29,3.148-6.464,5.534-6.654,5.746l0.078,0.07l-2.852,2.522   c-2.07,1.831-2.264,4.99-0.434,7.058c0.988,1.118,2.365,1.688,3.749,1.688c1.177,0.001,2.358-0.413,3.309-1.254l9.067-8.02   c4.148-2.997,10.703-6.883,19.83-9.898c-6.022,3.632-11.457,9.774-14.994,18.018c-4.231,9.711-6.487,22.272-6.507,39.366   c0,4.384,0.155,9.071,0.477,14.09c0.424,6.616,5.925,11.699,12.464,11.699c0.27,0,0.54-0.009,0.812-0.026   c6.889-0.443,12.115-6.387,11.673-13.276c-0.292-4.533-0.428-8.689-0.428-12.486c-0.05-19.845,3.813-29.608,6.624-33.29   c1.42-1.902,2.473-2.556,3.416-3.012c0.941-0.428,1.938-0.603,3.03-0.607c1.015-0.004,2.053,0.181,2.717,0.358   c0.333,0.088,0.571,0.168,0.665,0.201c0.003,0.001,0.006,0.002,0.009,0.003c3.431,1.437,7.148,1.218,10.266-0.289   c3.114,1.505,6.826,1.726,10.253,0.295l0.008-0.001c0.233-0.101,1.844-0.586,3.396-0.567c1.092,0.004,2.089,0.181,3.03,0.609   c1.34,0.694,3.258,1.776,5.637,6.982c2.298,5.164,4.42,14.484,4.4,29.32c0,3.797-0.133,7.953-0.424,12.491   c-0.439,6.889,4.788,12.831,11.677,13.27c0.272,0.018,0.543,0.026,0.812,0.026c6.54,0,12.039-5.084,12.461-11.703   c0.32-5.017,0.473-9.702,0.473-14.084c-0.05-22.73-3.97-37.669-11.442-48.049c-3.466-4.773-7.792-8.305-12.235-10.514v-0.087   c10.264,2.826,17.712,6.863,22.566,10.152c2.444,1.658,4.229,3.125,5.374,4.148c0.573,0.511,0.985,0.91,1.242,1.167   c0.126,0.128,0.215,0.221,0.265,0.274c0.026,0.026,0.04,0.041,0.045,0.047l1.153-1.06l-1.167,1.044l7.447-6.673   c-0.434-0.489-11.388-12.509-34.532-18.817l0,0l0.002,0.001V102.18z"/></g></svg>